<!-- icon666.com - MILLIONS OF FREE VECTOR ICONS --><svg version="1.1" id="Capa_1" width='24px' heigth='24px' fill='green' xmlns="http://www.w3.org/2000/svg" xmlns:xlink="http://www.w3.org/1999/xlink" x="0px" y="0px" viewBox="0 0 296.514 296.514" style="enable-background:new 0 0 296.514 296.514;" xml:space="preserve"><g><path d="M209.521,13.251c-23.354,0-45.25,9.378-61.264,25.25c-16.013-15.873-37.909-25.25-61.264-25.25 C39.025,13.251,0,52.277,0,100.245c0,38.813,14.157,73.226,44.553,108.299c18.824,21.721,61.054,52.392,84.552,68.742 c5.728,3.984,12.438,5.977,19.15,5.977c6.715,0,13.43-1.994,19.16-5.98c23.496-16.351,65.725-47.021,84.545-68.738 c30.396-35.071,44.554-69.484,44.554-108.299C296.514,52.277,257.488,13.251,209.521,13.251z M146.636,224.685 c-40.825,0-73.92-33.095-73.92-73.92c0-40.825,33.095-73.921,73.92-73.921s73.92,33.095,73.92,73.921 C220.556,191.589,187.461,224.685,146.636,224.685z"/><path d="M166.636,130.764v-24.538c0-11.046-8.954-20-20-20s-20,8.954-20,20v24.538h-24.538c-11.046,0-20,8.954-20,20 s8.954,20,20,20h24.538v24.538c0,11.046,8.954,20,20,20s20-8.954,20-20v-24.538h24.538c11.046,0,20-8.954,20-20s-8.954-20-20-20 H166.636z"/></g></svg>