<svg version="1.1" width='40px' heigth="40px" id="Layer_1" xmlns="http://www.w3.org/2000/svg" xmlns:xlink="http://www.w3.org/1999/xlink" x="0px" y="0px" viewBox="0 0 512 512" style="enable-background:new 0 0 512 512;" xml:space="preserve"><path style="fill:#53565C;" d="M497,512c-41.353,0-76-34.647-76-76v-21.255c0-8.291,6.709-15,15-15s15,6.709,15,15V436 c0,24.814,21.186,46,46,46c8.291,0,15,6.709,15,15S505.291,512,497,512z"/><path style="fill:#E6EEFF;" d="M256,512C115.39,512,0,396.61,0,256S115.39,0,256,0s256,115.39,256,256S396.61,512,256,512z"/><path style="fill:#DAE2F2;" d="M512,256C512,115.39,396.61,0,256,0v512C396.61,512,512,396.61,512,256z"/><g><path style="fill:#5C5F66;" d="M109.076,271.352c-31.479-10.239-48.75-44.15-38.54-75.601 c10.269-31.494,44.312-48.706,75.601-38.54h0.015c31.465,10.239,48.735,44.15,38.525,75.601 C174.434,264.286,140.523,281.583,109.076,271.352z"/><path style="fill:#5C5F66;" d="M141.376,413.764c-26.827-19.522-32.778-56.991-13.257-83.818 c19.542-26.896,57.032-32.738,83.804-13.257c26.841,19.502,32.778,56.977,13.257,83.804 C205.643,427.38,168.054,433.129,141.376,413.764z M140.248,338.764h0.293H140.248z"/></g><g><path style="fill:#53565C;" d="M286.82,400.492L286.82,400.492c-19.522-26.827-13.585-64.302,13.257-83.804 c26.542-19.344,64.163-13.776,83.804,13.257c19.522,26.827,13.585,64.302-13.257,83.804 C343.837,433.194,306.278,427.27,286.82,400.492z"/><path style="fill:#53565C;" d="M441.464,195.736c-10.254-31.479-44.15-48.706-75.615-38.525 c-31.465,10.239-48.735,44.15-38.525,75.615c10.245,31.463,44.16,48.754,75.601,38.525c0.015,0,0.015,0,0.015,0 C434.403,261.112,451.674,227.201,441.464,195.736z"/></g><path style="fill:#5C5F66;" d="M256,61c-32.999,0-60,26.999-60,60c0,32.999,27.001,60,60,60s60-27.001,60-60 C316,87.999,288.999,61,256,61z"/><path style="fill:#A1A7B3;" d="M256,211c-24.901,0-45,20.099-45,45c0,24.899,20.099,45,45,45s45-20.101,45-45 C301,231.099,280.901,211,256,211z M256,271c-8.401,0-15-6.601-15-15c0-8.401,6.599-15,15-15s15,6.599,15,15 C271,264.399,264.401,271,256,271z"/><path style="fill:#979CA7;" d="M301,256c0,24.899-20.099,45-45,45v-30c8.401,0,15-6.601,15-15c0-8.401-6.599-15-15-15v-30 C280.901,211,301,231.099,301,256z"/><path style="fill:#53565C;" d="M316,121c0-33.001-27.001-60-60-60v120C288.999,181,316,153.999,316,121z"/></svg>