<svg width="36" height="36" fill="none" xmlns="http://www.w3.org/2000/svg"><path d="m29.89 27.884-5.218-5.218a5.973 5.973 0 0 0 1.248-3.672 5.991 5.991 0 0 0-1.766-4.26 5.983 5.983 0 0 0-4.26-1.767 5.99 5.99 0 0 0-4.262 1.766 5.979 5.979 0 0 0-1.766 4.261 5.99 5.99 0 0 0 1.766 4.261 5.979 5.979 0 0 0 4.261 1.766 5.977 5.977 0 0 0 3.67-1.246l5.218 5.216a.165.165 0 0 0 .233 0l.876-.874a.164.164 0 0 0 0-.233zm-6.815-5.708a4.476 4.476 0 0 1-3.182 1.318 4.476 4.476 0 0 1-3.182-1.318 4.476 4.476 0 0 1-1.318-3.182c0-1.201.468-2.332 1.318-3.182a4.476 4.476 0 0 1 3.182-1.318c1.201 0 2.332.466 3.182 1.318a4.476 4.476 0 0 1 1.318 3.182 4.473 4.473 0 0 1-1.318 3.182z" fill="#000" fill-opacity=".45"/><path stroke="#D9D9D9" d="M1.4-.5h41v43h-41z"/></svg>